<?xml version="1.0" encoding="utf-8"?>
<!DOCTYPE svg PUBLIC "-//W3C//DTD SVG 1.1//EN" "http://www.w3.org/Graphics/SVG/1.1/DTD/svg11.dtd">
<svg version="1.1" xmlns="http://www.w3.org/2000/svg" width="300px" height="190px" viewBox="0 0 300 190" preserveAspectRatio="xMidYMid meet">
 <g fill="#000000">
  <path d="M0 157 c0 -32.3 0 -33 2 -33 1.1 0 2 -0.4 2 -1 0 -0.5 -0.9 -1 -2 -1 -2 0 -2 -0.7 -2 -61 l0 -61 73.8 0 c40.5 0 75.4 0.3 77.5 0.6 l3.7 0.7 0 7.7 c0 4.2 0.3 9.8 0.6 12.4 0.6 3.9 1 4.6 2.9 4.6 1.8 0 2.4 -0.7 2.9 -3.7 0.3 -2.1 1.9 -6.7 3.6 -10.1 1.6 -3.5 3 -6.5 3 -6.8 0 -0.2 -2.2 -0.6 -5 -1 -4 -0.5 -5 -1 -5 -2.5 0 -1.8 2.3 -1.9 71 -1.9 l71 0 0 60.5 c0 53.1 -0.2 60.5 -1.5 60.5 -0.8 0 -1.5 0.9 -1.5 2 0 1.1 0.7 2 1.5 2 1.3 0 1.5 4.3 1.5 32.5 l0 32.5 -150 0 -150 0 0 -33z m147 -55.5 c0 -0.8 -0.4 -1.5 -1 -1.5 -0.5 0 -1 0.7 -1 1.5 0 0.8 0.5 1.5 1 1.5 0.6 0 1 -0.7 1 -1.5z m-18.2 -37.7 c1.2 -6.2 3.4 -16 4.8 -21.8 2.1 -8.8 2.4 -12.1 2 -20 -0.3 -5.2 -0.8 -10.5 -1.2 -11.7 l-0.6 -2.3 -5.2 2.8 c-2.8 1.5 -8.1 5.7 -11.8 9.5 -7.4 7.4 -12.9 17.2 -14.9 26.7 -1.4 6.7 -0.6 19.2 1.5 24.3 l1.6 3.7 10.8 0 10.7 0 2.3 -11.2z m76.5 6 c2.6 -8.7 3 -13.8 1.4 -21.4 -2 -9.6 -6.9 -19.2 -13.4 -26.3 -5.2 -5.8 -13.5 -12.1 -15.9 -12.1 -1.4 0 -3.4 7.4 -3.4 13.1 0 8.2 2.2 21.9 3.5 21.9 1.8 0 2.4 3.6 3.1 17.8 l0.7 12.2 11.2 0 11.1 0 1.7 -5.2z m-58.6 -65.5 c-0.2 -0.2 -1.3 0 -2.4 0.4 -1.9 0.8 -1.9 1 -0.5 4.3 l1.5 3.5 0.9 -3.9 c0.4 -2.1 0.7 -4.1 0.5 -4.3z"/>
 </g>
 <g fill="#ffffff">
  <path d="M68 188.9 c-9.4 -3.9 -11.7 -18.4 -4.1 -26 3.3 -3.3 8.7 -4.5 14.4 -3.3 3.6 0.8 4.2 1.3 4.5 3.8 l0.4 2.9 -2.8 -2.2 c-5.8 -4.6 -13.7 -1.3 -15.4 6.4 -1.7 7.8 1.8 15.3 7.4 15.6 4.2 0.2 7 -0.3 9.3 -1.8 2 -1.3 2.3 -1.3 2.3 -0.1 0 4.1 -10.4 7.1 -16 4.7z"/>
  <path d="M129.4 189 c-4.2 -1.7 -6.4 -5.8 -6.5 -12.4 0 -3.3 -0.4 -8.5 -0.8 -11.3 l-0.7 -5.3 3 0 3.1 0 -0.3 11 c-0.3 10.6 -0.2 11.1 2.2 13.5 3.2 3.2 7.6 3.3 11.3 0.1 2.8 -2.4 2.8 -2.6 2.7 -13.5 l-0.2 -11.1 2.7 0 2.6 0 -0.3 10.2 c-0.5 12.5 -1.9 16.3 -6.6 18.3 -3.9 1.6 -8.9 1.8 -12.2 0.5z"/>
  <path d="M170 182.8 l-6.3 -7.2 2.8 -0.8 c9.2 -2.4 8.1 -13.4 -1.3 -12.6 l-3.7 0.3 0 13.3 0 13.2 -2.6 0 -2.5 0 0 -14.8 -0.1 -14.8 7.7 0.1 c8.7 0 12.4 1.7 13.3 6.1 0.7 4 -0.8 7.1 -4.4 9.3 l-3.1 1.9 5.8 6.1 c5.2 5.2 5.7 6.1 3.9 6.5 -1.1 0.3 -2.3 0.6 -2.7 0.6 -0.3 0 -3.4 -3.2 -6.8 -7.2z"/>
  <path d="M191.1 188.3 c-4.6 -2.4 -7 -5.9 -7.7 -11.4 -0.8 -5.6 2.1 -12.8 6 -15.4 3.5 -2.3 9.6 -3 14 -1.5 2.9 0.9 3.6 1.7 3.6 3.7 l0 2.4 -2.6 -2 c-8.5 -6.7 -18.6 3.1 -15.4 14.9 0.6 2.3 2.1 4.7 3.5 5.6 3.2 2.1 9.6 2 12.9 -0.2 3 -1.9 3.4 -0.6 0.9 2.5 -2.6 3.1 -10.6 3.8 -15.2 1.4z"/>
  <path d="M89.5 174.6 l0 -14.4 2.8 -0.5 2.7 -0.4 -0.2 6.6 -0.3 6.6 7.3 0.3 7.4 0.3 -0.4 -6.6 -0.3 -6.5 3 0 3 0 0 14.5 0 14.5 -3 0 -3 0 0.3 -6.4 0.4 -6.4 -5.5 -0.7 c-3 -0.4 -6.5 -0.4 -7.7 0 -2.1 0.7 -2.2 1.1 -1.6 7.1 l0.7 6.4 -2.8 0 -2.8 0 0 -14.4z"/>
  <path d="M213.5 174.2 l0 -14.7 2.7 0 2.8 0 -0.7 6.8 -0.6 6.7 7.7 0 7.8 0 -0.4 -6.5 -0.3 -6.5 3 0 3 0 0 14.5 0 14.5 -3 0 -3 0 0.3 -6.4 0.4 -6.4 -5.5 -0.7 c-3 -0.4 -6.5 -0.4 -7.7 0 -2.1 0.7 -2.2 1.1 -1.7 7.1 l0.6 6.4 -2.7 0 -2.7 0 0 -14.8z"/>
  <path d="M74.2 149.8 c-1.4 -1.4 -1.6 -7.8 -0.2 -7.8 0.6 0 1 1.8 1 4.1 0 3.6 0.2 4 2.3 3.7 1.7 -0.2 2.3 -1.2 2.8 -4.3 l0.7 -4 -0.2 4.5 c-0.1 4 -0.4 4.5 -2.6 4.8 -1.4 0.2 -3.1 -0.3 -3.8 -1z"/>
  <path d="M92.2 146.8 c-0.1 -2.7 0.2 -4.8 0.6 -4.8 0.4 0 1.6 1.5 2.7 3.3 l2 3.2 0.6 -3.5 c0.6 -3.2 0.6 -3 0.7 1.5 l0.1 5 -2.8 -3.5 -2.9 -3.5 -0.5 3.5 c-0.3 3 -0.4 2.8 -0.5 -1.2z"/>
  <path d="M110 146.5 c0 -2.5 0.5 -4.5 1 -4.5 0.6 0 1 2 1 4.5 0 2.5 -0.4 4.5 -1 4.5 -0.5 0 -1 -2 -1 -4.5z"/>
  <path d="M140 146.5 c0 -4.3 0.1 -4.5 2.8 -4.4 2.6 0 2.6 0.1 0.5 0.9 -2.7 1.1 -3 2.7 -0.5 3.3 1.5 0.4 1.5 0.5 -0.1 0.6 -2.6 0.1 -1.6 2.4 1.4 3.2 2.1 0.6 2.1 0.7 -0.8 0.8 -3.2 0.1 -3.3 0 -3.3 -4.4z"/>
  <path d="M156 146.4 c0 -4.4 0.1 -4.5 2.8 -4.2 2.3 0.3 2.7 0.7 2.5 3.2 -0.1 1.7 0.3 3.6 0.9 4.3 0.6 0.7 0.6 1.3 0.2 1.3 -1.6 0 -3.8 -4.4 -2.5 -4.8 1.8 -0.6 1.3 -3.4 -0.6 -3 -1.4 0.3 -1.8 1.3 -1.7 4.1 0.1 2 -0.3 3.7 -0.7 3.7 -0.5 0 -0.9 -2.1 -0.9 -4.6z"/>
  <path d="M175.8 150.3 c2.9 -0.6 2.8 -1.3 -0.5 -3.9 -2.1 -1.7 -2.5 -2.5 -1.7 -3.4 0.7 -0.7 2 -1 3 -0.7 1.6 0.4 1.5 0.5 -0.3 0.6 -3 0.1 -2.9 1.5 0.3 3 3.3 1.4 2.9 4.6 -0.6 4.7 -2.2 0.1 -2.2 0 -0.2 -0.3z"/>
  <path d="M189.5 146.5 c0 -2.5 0.3 -4.5 0.8 -4.5 0.4 0 0.7 2 0.7 4.5 0 2.5 -0.3 4.5 -0.7 4.5 -0.5 0 -0.8 -2 -0.8 -4.5z"/>
  <path d="M204 147.1 c0 -2.9 -0.5 -4.1 -1.7 -4.4 -1 -0.3 0 -0.5 2.2 -0.5 2.2 0 3.2 0.2 2.2 0.5 -1.5 0.4 -1.8 1.2 -1.5 4.4 0.2 2.1 0 3.9 -0.4 3.9 -0.5 0 -0.8 -1.8 -0.8 -3.9z"/>
  <path d="M220.5 150 c0.3 -0.5 -0.1 -2.3 -1 -4.1 -0.9 -1.7 -1.4 -3.3 -1.2 -3.6 0.3 -0.2 1.1 0.5 1.7 1.8 l1.2 2.2 2 -2.4 1.9 -2.4 -1.5 3.2 c-0.9 1.8 -1.6 3.9 -1.6 4.8 0 0.8 -0.5 1.5 -1.1 1.5 -0.5 0 -0.7 -0.4 -0.4 -1z"/>
  <path d="M125 149.6 c0 -0.2 -0.7 -2 -1.5 -4 -0.8 -2 -1.1 -3.6 -0.6 -3.6 0.5 0 1.5 1.5 2.1 3.3 l1.3 3.2 1 -3.2 c0.5 -1.8 1.3 -3.3 1.8 -3.3 0.4 0 0 1.8 -0.8 4 -0.9 2.2 -2 4 -2.5 4 -0.4 0 -0.8 -0.2 -0.8 -0.4z"/>
  <path d="M9.5 139.7 c-12.9 -7.3 -12.3 -26.8 0.9 -32.8 4.6 -2.1 12 -2.5 16.3 -0.8 6.3 2.4 11.3 10 11.3 17.4 0 4.5 -2.8 11.1 -5.6 13.7 -5.8 5.1 -16.3 6.3 -22.9 2.5z m15 -2.1 c5.6 -2.4 8.2 -9.4 6.4 -17.7 -2 -9.5 -9.6 -14 -17.3 -10.4 -4.7 2.3 -6.6 6 -6.6 13 0 7.1 2.9 13.1 7.3 15 4.1 1.8 6 1.8 10.2 0.1z"/>
  <path d="M273.5 141.1 c-1.1 -0.5 -3.4 -1 -5.1 -1 -3.9 -0.1 -4.5 -0.7 -3.4 -3.7 1.6 -4.2 3 -15 3.1 -23.9 l0.2 -8.6 7.6 0.7 c14.6 1.2 19.6 3.8 22.7 11.9 3 8 0.5 17 -6.2 22.2 -3 2.3 -4.8 2.8 -10.3 3 -3.6 0.1 -7.5 -0.1 -8.6 -0.6z m14.3 -4.8 c3 -1.9 6.2 -8.8 6.2 -13.6 0 -5.4 -2.4 -10.3 -5.8 -12.1 -4.3 -2.2 -10.9 -3.1 -12.6 -1.7 -1.4 1.2 -4.5 26.6 -3.3 27.7 2.5 2.5 11.4 2.3 15.5 -0.3z"/>
  <path d="M43.4 137.4 c0.6 -1.5 9.2 -23.5 13.6 -34.9 0.8 -2.2 -0.5 -4.2 13.9 20.3 l7.9 13.2 -4.4 0 c-3.6 0 -4.4 -0.3 -4.4 -1.8 0 -1 -0.7 -2.8 -1.6 -4 -1.2 -1.8 -2.5 -2.2 -6.3 -2.2 -10.2 0 -12.8 1.7 -12.3 8.3 0 1 -0.6 1.7 -1.8 1.7 -1 0 -2.6 0.3 -3.6 0.7 -1.4 0.5 -1.6 0.3 -1 -1.3z m21.4 -12.9 c0.2 -0.2 -1.4 -3.3 -3.5 -6.9 l-3.8 -6.7 -2.2 5.8 c-3.4 8.8 -3.3 9 3.5 8.5 3.1 -0.2 5.8 -0.6 6 -0.7z"/>
  <path d="M232.7 136.5 c-9.5 -3.3 -13.9 -12.4 -11.2 -22.7 2.2 -8.5 8.3 -13.1 17.6 -13.1 11.2 0 18.9 7.3 18.9 18.1 0 14 -12.1 22.5 -25.3 17.7z m14.3 -5.3 c6.4 -6.5 6.5 -19 0 -24.7 -3.4 -3 -12 -2.8 -15.4 0.4 -6.3 5.9 -6 20.9 0.5 25.5 1.4 0.9 4.3 1.6 7.2 1.6 4 0 5.4 -0.5 7.7 -2.8z"/>
  <path d="M84.7 119.8 c-0.3 -8.4 -0.9 -16.5 -1.3 -18 -0.6 -2.7 -0.5 -2.8 3.4 -2.8 l4 0 -0.5 6.3 c-0.5 6 1 24.8 2.3 28.1 0.5 1.3 -0.1 1.6 -3.4 1.6 l-3.9 0 -0.6 -15.2z"/>
  <path d="M186.2 132.9 c-13.2 -6.6 -13.2 -26.7 -0.1 -33.4 3.5 -1.9 12.9 -1.9 17.2 -0.1 6.9 2.8 11.4 11.4 10.3 19.4 -1.8 13 -15.4 20 -27.4 14.1z m15.6 -3.5 c5.3 -3.5 7.1 -16.6 3.2 -23 -4 -6.3 -13.6 -7 -18.4 -1.3 -3.3 3.9 -3.9 6.5 -3.4 13.9 0.5 6.5 2.2 9.3 7.3 11.6 3.4 1.6 7.8 1.1 11.3 -1.2z"/>
  <path d="M107 133 c0 -0.6 -3.4 -4.6 -7.6 -9 l-7.6 -7.9 6.6 -7.6 c3.6 -4.2 6.6 -8.2 6.6 -9 0 -1.1 1.2 -1.5 4.1 -1.5 l4.1 0 -7.6 8.2 c-4.2 4.5 -7.6 8.5 -7.6 8.8 0 0.4 4.3 4.9 9.5 9.9 l9.6 9.1 -5.1 0 c-2.7 0 -5 -0.5 -5 -1z"/>
  <path d="M129.1 124.2 c-1.9 -4.8 -5.1 -12.5 -7.3 -17.1 -2.1 -4.6 -3.8 -8.5 -3.8 -8.6 0 -0.2 1.8 -0.5 4 -0.7 3.3 -0.3 4 0 4 1.4 0 1.9 6.8 20.7 8 22 0.8 1 8.1 -18.9 8 -21.9 0 -2 0.5 -2.3 4 -2.3 3.6 0 4 0.3 4 2.4 0 2 6.1 19.2 7.8 22 0.7 1.3 9.2 -21.1 8.6 -22.8 -0.4 -0.9 0.4 -1.3 2.5 -1.2 1.7 0.1 3.1 0.4 3.1 0.7 0 0.4 -1.3 3.3 -2.9 6.5 -1.5 3.3 -4.8 11 -7.2 17.1 -2.4 6.2 -4.6 11.3 -4.9 11.3 -0.3 0 -3 -6.1 -6 -13.5 -3 -7.4 -5.8 -13.5 -6.1 -13.5 -0.3 0 -3 6.1 -5.9 13.5 -2.9 7.4 -5.6 13.5 -5.9 13.5 -0.3 0 -2.1 -3.9 -4 -8.8z"/>
  <path d="M100.6 74.5 c-6.1 -16.1 -2.5 -37.8 8.6 -52.2 7.9 -10.4 18.2 -16.9 31.6 -20.4 41.6 -10.6 80.4 29.8 67.6 70.4 l-1.7 5.6 -14.6 0.3 -14.6 0.3 0 -10.5 c0 -12.1 -1.3 -21.7 -2.5 -18.5 -0.4 1.1 -1 4.5 -1.4 7.5 -0.8 5.9 -5 17.6 -7.2 19.9 -2.7 2.9 -2.3 0.3 1 -6.4 4.9 -9.7 6.2 -18.1 4.8 -30.8 -1.6 -13.5 -1.5 -23.3 0.2 -29 2 -6.5 0 -4.8 -4 3.5 -5 10.6 -5.9 16.2 -4.5 29.4 1.5 15.2 1.3 22.9 -0.9 29.4 l-1.8 5.5 0.6 -5 c0.4 -2.7 0.7 -10.2 0.6 -16.5 0 -9.1 -0.5 -13.3 -2.4 -20 l-2.5 -8.5 -0.6 10 c-0.4 5.5 -1.4 12.7 -2.3 16.1 -2.6 9.8 -8.2 22.9 -10 23.2 -2 0.4 -2.1 0.9 0.9 -13.3 2.9 -13.8 3.2 -25.9 1 -35.5 -1.8 -7.6 -7.3 -21.7 -8.8 -22.7 -0.7 -0.4 -0.8 0 -0.2 1.3 0.4 1 0.9 7.5 1.2 14.4 0.3 10.9 0.1 13.9 -2.1 23 -1.4 5.8 -3.6 15.5 -4.8 21.7 l-2.2 11.2 -13.8 0.3 -13.7 0.3 -1.5 -4z m53.1 -32.7 c0.3 -4.4 0 -11.1 -0.7 -16 -0.8 -4.5 -1.4 -11.4 -1.3 -15.3 l0 -7 -1.4 4 c-2.4 6.7 -2.7 16.2 -0.9 27.5 1.1 6.3 1.5 12.9 1.2 16.5 l-0.6 6 1.6 -4 c0.8 -2.2 1.8 -7.4 2.1 -11.7z"/>
 </g>
</svg>